<svg width="33" height="33" viewBox="0 0 33 33" fill="none" xmlns="http://www.w3.org/2000/svg">
<rect x="0.5" y="0.5" width="32" height="32" rx="16" fill="#E27D87"/>
<rect x="0.5" y="0.5" width="32" height="32" rx="16" stroke="black"/>
<path d="M17 20C18.5913 20 20.1174 19.3679 21.2426 18.2426C22.3679 17.1174 23 15.5913 23 14C23 12.4087 22.3679 10.8826 21.2426 9.75736C20.1174 8.63214 18.5913 8 17 8C15.4087 8 13.8826 8.63214 12.7574 9.75736C11.6321 10.8826 11 12.4087 11 14C11 15.5913 11.6321 17.1174 12.7574 18.2426C13.8826 19.3679 15.4087 20 17 20ZM17 20V26M15 24H19" stroke="black" stroke-width="2" stroke-linecap="round" stroke-linejoin="round"/>
</svg>
