<svg width="33" height="33" viewBox="0 0 33 33" fill="none" xmlns="http://www.w3.org/2000/svg">
<rect x="0.5" y="0.5" width="32" height="32" rx="16" fill="#76DBDC"/>
<rect x="0.5" y="0.5" width="32" height="32" rx="16" stroke="black"/>
<path d="M17.9532 14.5286C17.4645 14.0422 16.8849 13.6569 16.2473 13.3946C15.6097 13.1323 14.9267 12.9982 14.2372 12.9998C13.5478 13.0015 12.8655 13.1389 12.2292 13.4043C11.5928 13.6697 11.015 14.0578 10.5287 14.5465C10.0424 15.0352 9.65708 15.6149 9.39479 16.2525C9.13249 16.8901 8.99835 17.5731 9.00002 18.2626C9.00168 18.952 9.13912 19.6344 9.40449 20.2707C9.66987 20.9071 10.058 21.4849 10.5466 21.9712C11.5336 22.9534 12.8702 23.5033 14.2626 23.5C15.655 23.4966 16.989 22.9403 17.9711 21.9533C18.9533 20.9663 19.5032 19.6296 19.4998 18.2372C19.4965 16.8448 18.9401 15.5108 17.9532 14.5286ZM17.9532 14.5286L23 9.5M23 9.5H19.5001M23 9.5V13" stroke="black" stroke-width="2" stroke-linecap="round" stroke-linejoin="round"/>
</svg>
