<svg width="16" height="19" viewBox="0 0 16 19" fill="none" xmlns="http://www.w3.org/2000/svg">
<path d="M15.726 4.37579L13.7761 3.59305C13.657 2.96676 13.1787 2.46533 12.5631 2.3097L12.4577 1.10065C12.4426 0.928186 12.3263 0.780974 12.1614 0.725727C11.9965 0.67048 11.8143 0.7176 11.6975 0.845896L11.1874 1.40572L10.8744 0.31573C10.8223 0.134218 10.6584 0.00679263 10.4688 0.000213324C10.2793 -0.00564033 10.1069 0.109449 10.0422 0.286994L7.34196 7.69888C5.39952 8.20074 3.70335 9.43746 2.66153 11.1203C1.70728 12.6617 1.41088 14.4277 1.82694 16.0928C2.07009 17.066 2.53176 17.7073 3.00402 18.1278C3.00752 18.1277 3.25358 18.0209 3.00402 18.1278C2.01234 16.9573 1.59264 17.923 0.832343 16.3438C0.727952 16.1269 0.46661 16.0354 0.248639 16.1392C0.0306672 16.2431 -0.0613738 16.5031 0.0430657 16.72C0.93333 18.5692 2.23911 18.9168 2.51484 19C2.55578 19 10.8695 19 10.8695 19C11.1112 19 11.3071 18.8051 11.3071 18.5646C11.3071 17.3926 10.3675 16.8584 9.53835 16.6624C9.92606 15.9103 9.95956 15.2489 9.9156 14.8162L10.03 14.801L12.6528 18.8024C12.7336 18.9256 12.8714 19 13.0193 19H14.6119C14.7713 19 14.9181 18.9137 14.995 18.775C15.072 18.6362 15.0671 18.4666 14.9821 18.3325C14.9652 18.3058 13.3209 15.7082 12.437 14.2539V6.938C12.5671 6.9529 12.7132 6.9604 12.8422 6.9604C14.1117 6.9604 15.3056 6.2478 15.9485 4.98428C15.9485 4.98428 15.9655 4.94902 15.9681 4.94244C16.0585 4.71947 15.9502 4.46573 15.726 4.37579Z" fill="#1E1E1E"/>
</svg>
